Coordinates
version=1
nRows=6
nColumns=107
inDegrees=yes

Units are S.I. units (second, meters, Newtons, ...)
If the header above contains a line with 'inDegrees', this indicates whether rotational values are in degrees (yes) or radians (no).

endheader
time	sternoclavicular_r2	sternoclavicular_r3	unrotscap_r3	unrotscap_r2	acromioclavicular_r2	acromioclavicular_r3	acromioclavicular_r1	unrothum_r1	unrothum_r3	unrothum_r2	elv_angle	shoulder_elv	shoulder1_r2	shoulder_rot	elbow_flexion	pro_sup	deviation	flexion	proximal_distal_r1	proximal_distal_r3	cmc_flexion	cmc_abduction	mp_flexion	ip_flexion	mcp2_flexion	mcp2_abduction	pm2_flexion	md2_flexion	mcp3_flexion	mcp3_abduction	pm3_flexion	md3_flexion	mcp4_flexion	mcp4_abduction	pm4_flexion	md4_flexion	mcp5_flexion	mcp5_abduction	pm5_flexion	md5_flexion	bicpt_tx	bicpt_ty	bicpt_tz	bicpt2_tx	bicpt2_ty	bicpt2_tz	ptpt_tx	ptpt_ty	ptpt_tz	FCUpt_tx	FCUpt_ty	FCUpt_tz	EDCpt_tx	EDCpt_ty	EDCpt_tz	APLpt_tx	APLpt_ty	APLpt_tz	FPLpt_tx	FPLpt_ty	FPLpt_tz	FPLpt2_tx	FPLpt2_ty	FPLpt2_tz	PEC1pt2_tx	PEC1pt2_ty	PEC1pt2_tz	PEC1pt3_tx	PEC1pt3_ty	PEC1pt3_tz	PEC2pt2_tx	PEC2pt2_ty	PEC2pt2_tz	PEC2pt3_tx	PEC2pt3_ty	PEC2pt3_tz	PEC3pt2_tx	PEC3pt2_ty	PEC3pt2_tz	PEC3pt3_tx	PEC3pt3_ty	PEC3pt3_tz	DELT2pt2a_tx	DELT2pt2a_ty	DELT2pt2a_tz	DELT2pt2_tx	DELT2pt2_ty	DELT2pt2_tz	LAT1pt2_tx	LAT1pt2_ty	LAT1pt2_tz	LAT1pt3_tx	LAT1pt3_ty	LAT1pt3_tz	LAT2pt2_tx	LAT2pt2_ty	LAT2pt2_tz	LAT2pt3_tx	LAT2pt3_ty	LAT2pt3_tz	LAT3pt2_tx	LAT3pt2_ty	LAT3pt2_tz	LAT3pt3_tx	LAT3pt3_ty	LAT3pt3_tz
      0.43333333	     -0.31633051	      0.13398267	     -0.13398267	      0.31633051	     -0.06405049	      0.51763356	      0.23267272	     -0.23267272	     -0.51763356	      0.06405049	    101.87138179	     74.89406025	     -1.77799103	    -35.09923247	     31.69933913	     80.37272124	      0.27774276	      0.57340817	      0.31379559	      0.28670409	     41.54371886	     -6.75948939	     13.41544807	     -7.17511361	    -40.20134959	     13.79245101	     11.94543716	      5.70550015	    -32.70106936	     -6.81418716	     23.65817112	     19.39753807	    -14.70881984	    -10.45577923	      8.99215685	     22.48916172	     34.62644595	    -14.36215643	    -17.69832337	      4.83465518	      0.00094852	     -0.03123323	     -0.00488522	      0.01478537	     -0.01881128	     -0.00201750	      0.00161136	     -0.06874002	     -0.00652445	      0.01209645	     -0.18242380	     -0.00005927	     -0.00964470	      0.00327410	     -0.00058511	     -0.00086203	     -0.00034481	     -0.00172405	     -0.00110340	     -0.00331019	     -0.00186198	     -0.00000820	     -0.00007977	     -0.00009572	      0.00245486	      0.00861282	      0.00599153	     -0.00803031	      0.01938926	     -0.01839067	      0.00245486	      0.00861282	      0.00599153	      0.00054090	      0.01797459	     -0.00944498	      0.00389946	      0.00478948	      0.01584790	      0.00000000	      0.00749971	      0.00000000	     -0.00703173	     -0.03249573	     -0.00618224	      0.02096461	     -0.00093461	     -0.01013177	     -0.00087376	      0.01464596	     -0.00599153	      0.00241326	      0.02113679	     -0.01747530	     -0.00586671	      0.01269039	     -0.00536741	     -0.01223271	      0.02679545	     -0.02999926	     -0.02296753	      0.01418828	     -0.00719816	     -0.01522847	      0.03095624	     -0.03748867
      0.46666667	     -0.31810900	      0.13473596	     -0.13473596	      0.31810900	     -0.06441060	      0.52054382	      0.23398086	     -0.23398086	     -0.52054382	      0.06441060	    101.33107046	     75.31513249	     -1.76856081	    -32.73448682	     31.55536832	     78.58740359	      0.30147220	      0.60799008	      0.33475046	      0.30399504	     41.53482779	     -6.99580215	     13.73105218	     -6.97733492	    -39.96185311	     13.75789125	     12.37571547	      4.95307819	    -32.38071621	     -6.92916108	     23.24905511	     19.90414639	    -14.45512227	    -10.53850560	      8.66527570	     23.46889362	     35.17578022	    -14.36487309	    -18.23492945	      4.84673620	      0.00094375	     -0.03121673	     -0.00488256	      0.01494329	     -0.01877217	     -0.00230692	      0.00174328	     -0.06865472	     -0.00638064	      0.01189495	     -0.18248096	     -0.00009968	     -0.00943047	      0.00317972	     -0.00053409	     -0.00093162	     -0.00037265	     -0.00186325	     -0.00119248	     -0.00357743	     -0.00201230	     -0.00000822	     -0.00007996	     -0.00009595	      0.00246866	      0.00866125	      0.00602522	     -0.00807546	      0.01949827	     -0.01849406	      0.00246866	      0.00866125	      0.00602522	      0.00054394	      0.01807565	     -0.00949808	      0.00391556	      0.00481641	      0.01588794	      0.00000000	      0.00758484	      0.00000000	     -0.00707126	     -0.03267843	     -0.00625294	      0.02004034	     -0.00085146	     -0.00887440	     -0.00087868	      0.01472831	     -0.00602522	      0.00242682	      0.02125562	     -0.01757355	     -0.00589969	      0.01276174	     -0.00539759	     -0.01230148	      0.02694610	     -0.03016792	     -0.02309666	      0.01426805	     -0.00723863	     -0.01531409	      0.03113028	     -0.03769944
      0.50000000	     -0.31807358	      0.13472095	     -0.13472095	      0.31807358	     -0.06440343	      0.52048586	      0.23395481	     -0.23395481	     -0.52048586	      0.06440343	    101.33531247	     75.30674650	     -1.76863485	    -32.73594672	     31.55477584	     78.58388838	      0.30144964	      0.60801995	      0.33473032	      0.30400998	     41.53620395	     -6.99631568	     13.73177412	     -6.97708867	    -39.96115143	     13.75759225	     12.37586036	      4.95324288	    -32.37949855	     -6.92947992	     23.24939560	     19.90415967	    -14.45442418	    -10.53814113	      8.66548433	     23.46879830	     35.17660093	    -14.36456791	    -18.23431383	      4.84679541	      0.00094373	     -0.03121666	     -0.00488255	      0.01494359	     -0.01877201	     -0.00230748	      0.00174354	     -0.06865455	     -0.00638035	      0.01189455	     -0.18248107	     -0.00009976	     -0.00943004	      0.00317953	     -0.00053399	     -0.00093169	     -0.00037267	     -0.00186337	     -0.00119256	     -0.00357767	     -0.00201244	     -0.00000821	     -0.00007993	     -0.00009592	      0.00246839	      0.00866028	      0.00602454	     -0.00807456	      0.01949610	     -0.01849201	      0.00246839	      0.00866028	      0.00602454	      0.00054388	      0.01807363	     -0.00949703	      0.00391524	      0.00481587	      0.01588715	      0.00000000	      0.00758314	      0.00000000	     -0.00707047	     -0.03267479	     -0.00625153	      0.02004080	     -0.00085151	     -0.00887527	     -0.00087858	      0.01472667	     -0.00602454	      0.00242655	      0.02125326	     -0.01757159	     -0.00589903	      0.01276032	     -0.00539699	     -0.01230011	      0.02694310	     -0.03016456	     -0.02309409	      0.01426646	     -0.00723782	     -0.01531238	      0.03112681	     -0.03769524
      0.53333333	     -0.31746012	      0.13446112	     -0.13446112	      0.31746012	     -0.06427922	      0.51948201	      0.23350359	     -0.23350359	     -0.51948201	      0.06427922	    101.50677701	     75.16150412	     -1.77162747	    -33.53736964	     31.62861207	     78.83055022	      0.29278883	      0.60114098	      0.32718906	      0.30057049	     41.60758615	     -6.81461005	     13.60657146	     -6.50532269	    -39.84526556	     13.79013568	     12.54199402	      4.36379366	    -32.60424257	     -6.93208139	     23.56700638	     19.45333083	    -14.64665263	    -10.26450565	      8.57460851	     22.65298461	     34.54367592	    -14.35522235	    -17.78341701	      4.84866834	      0.00094618	     -0.03122512	     -0.00488391	      0.01492220	     -0.01879207	     -0.00226776	      0.00172531	     -0.06866634	     -0.00640022	      0.01192233	     -0.18247322	     -0.00009432	     -0.00945964	      0.00319251	     -0.00054094	     -0.00091768	     -0.00036707	     -0.00183536	     -0.00117463	     -0.00352389	     -0.00198219	     -0.00000809	     -0.00007842	     -0.00009410	      0.00246363	      0.00864358	      0.00601293	     -0.00805899	      0.01945849	     -0.01845634	      0.00246363	      0.00864358	      0.00601293	      0.00054283	      0.01803878	     -0.00947871	      0.00390969	      0.00480659	      0.01587338	      0.00000000	      0.00755373	      0.00000000	     -0.00705684	     -0.03261177	     -0.00622710	      0.02036244	     -0.00087954	     -0.00929462	     -0.00087688	      0.01469826	     -0.00601293	      0.00242187	      0.02121226	     -0.01753770	     -0.00588766	      0.01273571	     -0.00538658	     -0.01227639	      0.02689114	     -0.03010638	     -0.02304955	      0.01423894	     -0.00722386	     -0.01528285	      0.03106678	     -0.03762254
      0.56666667	     -0.31708042	      0.13430030	     -0.13430030	      0.31708042	     -0.06420234	      0.51886069	      0.23322431	     -0.23322431	     -0.51886069	      0.06420234	    101.64326519	     75.07160847	     -1.77400964	    -34.08692297	     31.55035082	     78.92950544	      0.27945289	      0.56659929	      0.31533686	      0.28329965	     41.62321938	     -7.02247101	     14.12121591	     -6.22560758	    -39.63376736	     13.75491794	     12.89622665	      3.69072550	    -32.16595071	     -6.99906553	     23.06113055	     19.81906081	    -14.64784457	    -10.38726531	      8.85556597	     24.35023719	     35.09473390	    -14.36056023	    -18.03998309	      4.84502410	      0.00094359	     -0.03121615	     -0.00488247	      0.01491359	     -0.01877081	     -0.00225180	      0.00171800	     -0.06867107	     -0.00640820	      0.01193348	     -0.18247007	     -0.00009212	     -0.00947152	      0.00319772	     -0.00054373	     -0.00084856	     -0.00033942	     -0.00169712	     -0.00108615	     -0.00325846	     -0.00183289	     -0.00000806	     -0.00007808	     -0.00009370	      0.00246068	      0.00863324	      0.00600573	     -0.00804935	      0.01943522	     -0.01843427	      0.00246068	      0.00863324	      0.00600573	      0.00054218	      0.01801720	     -0.00946737	      0.00390625	      0.00480084	      0.01586484	      0.00000000	      0.00753555	      0.00000000	     -0.00704840	     -0.03257276	     -0.00621200	      0.02057806	     -0.00089885	     -0.00958621	     -0.00087584	      0.01468068	     -0.00600573	      0.00241898	      0.02118689	     -0.01751672	     -0.00588061	      0.01272048	     -0.00538014	     -0.01226171	      0.02685898	     -0.03007038	     -0.02302198	      0.01422191	     -0.00721522	     -0.01526457	      0.03102962	     -0.03757754
      0.60000000	     -0.31704809	      0.13428661	     -0.13428661	      0.31704809	     -0.06419579	      0.51880779	      0.23320053	     -0.23320053	     -0.51880779	      0.06419579	    101.65156345	     75.06395355	     -1.77415447	    -34.08509941	     31.55370550	     78.92708511	      0.27943553	      0.56661710	      0.31532087	      0.28330855	     41.62426702	     -7.02262176	     14.12191734	     -6.22538351	    -39.63341924	     13.75466547	     12.89633073	      3.69103281	    -32.16568122	     -6.99906089	     23.06135324	     19.81907296	    -14.64707864	    -10.38666118	      8.85579016	     24.35006647	     35.09494263	    -14.36031385	    -18.03965214	      4.84505221	      0.00094370	     -0.03121654	     -0.00488253	      0.01491380	     -0.01877172	     -0.00225219	      0.00171818	     -0.06867095	     -0.00640800	      0.01193321	     -0.18247015	     -0.00009218	     -0.00947123	      0.00319760	     -0.00054367	     -0.00084860	     -0.00033944	     -0.00169719	     -0.00108620	     -0.00325861	     -0.00183297	     -0.00000806	     -0.00007806	     -0.00009367	      0.00246043	      0.00863236	      0.00600512	     -0.00804853	      0.01943324	     -0.01843239	      0.00246043	      0.00863236	      0.00600512	      0.00054213	      0.01801536	     -0.00946641	      0.00390596	      0.00480035	      0.01586411	      0.00000000	      0.00753400	      0.00000000	     -0.00704768	     -0.03256944	     -0.00621072	      0.02057733	     -0.00089879	     -0.00958526	     -0.00087575	      0.01467919	     -0.00600512	      0.00241873	      0.02118473	     -0.01751494	     -0.00588001	      0.01271918	     -0.00537959	     -0.01226046	      0.02685624	     -0.03006731	     -0.02301963	      0.01422046	     -0.00721449	     -0.01526302	      0.03102646	     -0.03757371
